<?xml version="1.0" encoding="UTF-8" standalone="no"?>
<svg width="100%" height="100%" viewBox="0 -40 799 680" version="1.1" xmlns="http://www.w3.org/2000/svg" xmlns:xlink="http://www.w3.org/1999/xlink" xml:space="preserve" style="fill-rule:evenodd;clip-rule:evenodd;stroke-linecap:round;stroke-linejoin:round;stroke-miterlimit:1.5;"><style>.ouro{transform-box:fill-box;transform-origin:center;animation:ouroSpin 14s ease-in-out infinite}@keyframes ouroSpin{0%{transform:rotate(0)}16%{transform:rotate(360deg)}100%{transform:rotate(360deg)}}@media(prefers-reduced-motion:reduce){.ouro{animation:none}}</style>
    <g transform="matrix(1,0,0,1,-1529.42,-835.448)">
        <g transform="matrix(1,0,0,1,-41.0108,-515.563)">
            <g transform="matrix(2.91576,0,0,2.91576,-233.613,523.4)">
                <g transform="matrix(50,0,0,50,617.071,502.822)">
                    <path d="M0.313,0.01C0.476,0.01 0.584,-0.077 0.584,-0.198C0.584,-0.475 0.162,-0.359 0.162,-0.551C0.162,-0.624 0.219,-0.671 0.303,-0.671C0.471,-0.671 0.44,-0.502 0.522,-0.502C0.554,-0.502 0.572,-0.52 0.572,-0.552C0.572,-0.645 0.461,-0.72 0.31,-0.72C0.17,-0.72 0.058,-0.638 0.058,-0.51C0.058,-0.248 0.48,-0.376 0.48,-0.157C0.48,-0.084 0.417,-0.039 0.338,-0.039C0.143,-0.039 0.178,-0.213 0.089,-0.216C0.058,-0.217 0.033,-0.195 0.033,-0.158C0.033,-0.071 0.149,0.01 0.313,0.01Z" style="fill:rgb(0,84,147);fill-rule:nonzero;"/>
                </g>
                <g transform="matrix(50,0,0,50,648.121,502.822)">
                    <path d="M0.28,0.01C0.433,0.01 0.54,-0.106 0.54,-0.242C0.54,-0.381 0.439,-0.49 0.288,-0.49C0.137,-0.49 0.031,-0.376 0.031,-0.24C0.031,-0.101 0.13,0.01 0.28,0.01ZM0.314,-0.036C0.213,-0.036 0.146,-0.15 0.146,-0.28C0.146,-0.387 0.193,-0.444 0.265,-0.444C0.358,-0.444 0.425,-0.336 0.425,-0.2C0.425,-0.095 0.378,-0.036 0.314,-0.036Z" style="fill:rgb(0,84,147);fill-rule:nonzero;"/>
                </g>
                <g transform="matrix(50,0,0,50,676.671,502.822)">
                    <path d="M0.264,0.01C0.385,0.01 0.457,-0.067 0.47,-0.145C0.473,-0.166 0.449,-0.176 0.438,-0.154C0.413,-0.1 0.373,-0.068 0.308,-0.068C0.213,-0.068 0.144,-0.154 0.144,-0.29C0.144,-0.399 0.187,-0.451 0.252,-0.451C0.355,-0.451 0.324,-0.319 0.403,-0.316C0.439,-0.315 0.461,-0.336 0.461,-0.366C0.461,-0.425 0.383,-0.49 0.269,-0.49C0.137,-0.49 0.031,-0.385 0.031,-0.233C0.031,-0.093 0.122,0.01 0.264,0.01Z" style="fill:rgb(0,84,147);fill-rule:nonzero;"/>
                </g>
                <g transform="matrix(50,0,0,50,701.721,502.822)">
                    <path d="M0.063,-0L0.217,-0C0.23,-0 0.238,-0.005 0.238,-0.014L0.238,-0.018C0.238,-0.042 0.195,-0.043 0.195,-0.081L0.195,-0.296C0.195,-0.361 0.222,-0.418 0.262,-0.418C0.304,-0.418 0.287,-0.361 0.346,-0.361C0.378,-0.361 0.401,-0.386 0.401,-0.415C0.401,-0.461 0.36,-0.49 0.312,-0.49C0.245,-0.49 0.196,-0.446 0.179,-0.371L0.179,-0.469C0.179,-0.486 0.171,-0.495 0.151,-0.486L0.057,-0.443C0.045,-0.437 0.036,-0.43 0.036,-0.423L0.036,-0.42C0.036,-0.399 0.082,-0.397 0.082,-0.355L0.082,-0.081C0.082,-0.043 0.042,-0.041 0.042,-0.018L0.042,-0.014C0.042,-0.005 0.05,-0 0.063,-0Z" style="fill:rgb(0,84,147);fill-rule:nonzero;"/>
                </g>
                <g transform="matrix(50,0,0,50,721.771,502.822)">
                    <path d="M0.441,0.006C0.483,0.006 0.521,-0 0.52,-0.018C0.519,-0.052 0.469,-0.027 0.463,-0.092L0.442,-0.312C0.43,-0.44 0.351,-0.49 0.225,-0.49C0.118,-0.49 0.041,-0.442 0.041,-0.381C0.041,-0.352 0.063,-0.334 0.092,-0.334C0.172,-0.334 0.13,-0.454 0.225,-0.454C0.297,-0.454 0.323,-0.391 0.332,-0.289L0.335,-0.258C0.308,-0.28 0.268,-0.292 0.212,-0.292C0.115,-0.292 0.035,-0.238 0.035,-0.14C0.035,-0.047 0.1,0.01 0.206,0.01C0.286,0.01 0.339,-0.021 0.361,-0.065C0.363,-0.007 0.387,0.006 0.441,0.006ZM0.15,-0.151C0.15,-0.209 0.184,-0.248 0.246,-0.248C0.296,-0.248 0.333,-0.22 0.343,-0.174L0.347,-0.126C0.346,-0.076 0.301,-0.044 0.251,-0.044C0.181,-0.044 0.15,-0.091 0.15,-0.151Z" style="fill:rgb(0,84,147);fill-rule:nonzero;"/>
                </g>
                <g transform="matrix(50,0,0,50,747.871,502.822)">
                    <path d="M0.223,0.01C0.312,0.01 0.362,-0.06 0.362,-0.126C0.362,-0.136 0.354,-0.141 0.345,-0.141C0.338,-0.141 0.331,-0.137 0.329,-0.127C0.321,-0.095 0.309,-0.059 0.262,-0.059C0.225,-0.059 0.2,-0.085 0.2,-0.134L0.2,-0.432L0.328,-0.432C0.338,-0.432 0.346,-0.439 0.346,-0.449L0.346,-0.462C0.346,-0.472 0.338,-0.48 0.328,-0.48L0.2,-0.48L0.2,-0.577C0.2,-0.591 0.194,-0.598 0.181,-0.598L0.168,-0.598C0.159,-0.598 0.151,-0.591 0.149,-0.577C0.141,-0.519 0.119,-0.48 0.047,-0.48L0.026,-0.48C0.016,-0.48 0.01,-0.473 0.01,-0.462L0.01,-0.449C0.01,-0.439 0.017,-0.432 0.026,-0.432L0.088,-0.432L0.088,-0.14C0.088,-0.042 0.14,0.01 0.223,0.01Z" style="fill:rgb(0,84,147);fill-rule:nonzero;"/>
                </g>
                <g transform="matrix(50,0,0,50,766.271,502.822)">
                    <path d="M0.259,0.01C0.386,0.01 0.459,-0.077 0.467,-0.136C0.47,-0.156 0.443,-0.161 0.435,-0.146C0.412,-0.105 0.374,-0.068 0.299,-0.068C0.22,-0.068 0.167,-0.13 0.147,-0.21L0.388,-0.277C0.437,-0.292 0.453,-0.318 0.453,-0.352C0.453,-0.405 0.394,-0.49 0.267,-0.49C0.135,-0.49 0.032,-0.37 0.032,-0.226C0.032,-0.073 0.133,0.01 0.259,0.01ZM0.139,-0.281C0.139,-0.382 0.183,-0.453 0.252,-0.453C0.307,-0.453 0.341,-0.401 0.341,-0.348C0.341,-0.328 0.331,-0.318 0.294,-0.306L0.14,-0.261C0.139,-0.268 0.139,-0.274 0.139,-0.281Z" style="fill:rgb(0,84,147);fill-rule:nonzero;"/>
                </g>
                <g transform="matrix(50,0,0,50,790.471,502.822)">
                    <path d="M0.234,0.009C0.363,0.009 0.447,-0.052 0.447,-0.139C0.447,-0.331 0.137,-0.253 0.137,-0.378C0.137,-0.425 0.176,-0.446 0.227,-0.446C0.34,-0.446 0.312,-0.332 0.391,-0.332C0.416,-0.332 0.436,-0.352 0.436,-0.376C0.436,-0.44 0.366,-0.49 0.242,-0.49C0.126,-0.49 0.042,-0.429 0.042,-0.338C0.042,-0.15 0.353,-0.234 0.353,-0.103C0.353,-0.058 0.313,-0.035 0.253,-0.035C0.123,-0.035 0.152,-0.151 0.079,-0.151C0.051,-0.151 0.03,-0.132 0.03,-0.102C0.03,-0.044 0.104,0.009 0.234,0.009Z" style="fill:rgb(0,84,147);fill-rule:nonzero;"/>
                </g>
                <g transform="matrix(50,0,0,50,814.421,502.822)">
                    <path d="M0.073,-0L0.228,-0C0.24,-0 0.249,-0.006 0.249,-0.015L0.249,-0.018C0.249,-0.043 0.205,-0.044 0.205,-0.081L0.205,-0.237L0.319,-0.237C0.495,-0.237 0.619,-0.327 0.619,-0.478C0.619,-0.644 0.496,-0.71 0.328,-0.71L0.073,-0.71C0.059,-0.71 0.051,-0.705 0.051,-0.696L0.051,-0.692C0.051,-0.672 0.089,-0.665 0.089,-0.629L0.089,-0.081C0.089,-0.043 0.051,-0.037 0.051,-0.018L0.051,-0.015C0.051,-0.006 0.059,-0 0.073,-0ZM0.319,-0.29L0.244,-0.29C0.217,-0.29 0.205,-0.305 0.205,-0.329L0.205,-0.619C0.205,-0.643 0.215,-0.657 0.243,-0.657L0.304,-0.657C0.414,-0.657 0.503,-0.591 0.503,-0.447C0.503,-0.341 0.428,-0.29 0.319,-0.29Z" style="fill:rgb(0,84,147);fill-rule:nonzero;"/>
                </g>
                <g transform="matrix(50,0,0,50,845.671,502.822)">
                    <path d="M0.063,-0L0.217,-0C0.23,-0 0.238,-0.005 0.238,-0.014L0.238,-0.018C0.238,-0.042 0.195,-0.043 0.195,-0.081L0.195,-0.296C0.195,-0.361 0.222,-0.418 0.262,-0.418C0.304,-0.418 0.287,-0.361 0.346,-0.361C0.378,-0.361 0.401,-0.386 0.401,-0.415C0.401,-0.461 0.36,-0.49 0.312,-0.49C0.245,-0.49 0.196,-0.446 0.179,-0.371L0.179,-0.469C0.179,-0.486 0.171,-0.495 0.151,-0.486L0.057,-0.443C0.045,-0.437 0.036,-0.43 0.036,-0.423L0.036,-0.42C0.036,-0.399 0.082,-0.397 0.082,-0.355L0.082,-0.081C0.082,-0.043 0.042,-0.041 0.042,-0.018L0.042,-0.014C0.042,-0.005 0.05,-0 0.063,-0Z" style="fill:rgb(0,84,147);fill-rule:nonzero;"/>
                </g>
                <g transform="matrix(50,0,0,50,865.721,502.822)">
                    <path d="M0.28,0.01C0.433,0.01 0.54,-0.106 0.54,-0.242C0.54,-0.381 0.439,-0.49 0.288,-0.49C0.137,-0.49 0.031,-0.376 0.031,-0.24C0.031,-0.101 0.13,0.01 0.28,0.01ZM0.314,-0.036C0.213,-0.036 0.146,-0.15 0.146,-0.28C0.146,-0.387 0.193,-0.444 0.265,-0.444C0.358,-0.444 0.425,-0.336 0.425,-0.2C0.425,-0.095 0.378,-0.036 0.314,-0.036Z" style="fill:rgb(0,84,147);fill-rule:nonzero;"/>
                </g>
            </g>
            <g transform="matrix(10.4667,0,0,10.4667,-4607.76,-3519.63)">
                <g transform="matrix(50,0,0,50,617.071,502.822)">
                    <path d="M0.234,0.009C0.358,0.009 0.436,-0.051 0.436,-0.126C0.436,-0.326 0.131,-0.228 0.131,-0.372C0.131,-0.422 0.176,-0.459 0.234,-0.459C0.357,-0.459 0.332,-0.337 0.389,-0.337C0.409,-0.337 0.425,-0.352 0.425,-0.372C0.425,-0.426 0.354,-0.49 0.23,-0.49C0.12,-0.49 0.042,-0.43 0.042,-0.353C0.042,-0.156 0.348,-0.255 0.348,-0.108C0.348,-0.051 0.298,-0.02 0.234,-0.02C0.1,-0.02 0.132,-0.142 0.07,-0.142C0.047,-0.142 0.031,-0.129 0.031,-0.105C0.031,-0.058 0.101,0.009 0.234,0.009Z" style="fill:rgb(192,57,43);fill-rule:nonzero;"/>
                </g>
            </g>
            <g class="ouro"><g transform="matrix(1.32646,0.974925,-0.974925,1.32646,3160.82,-1889.98)">
                <path d="M541.582,2078.06C550.748,2058.14 564.154,2040.56 580.641,2026.49C606.837,2004.14 640.813,1990.63 677.917,1990.63C760.694,1990.63 827.898,2057.84 827.898,2140.62C827.898,2223.39 760.694,2290.6 677.917,2290.6C595.14,2290.6 527.935,2223.39 527.935,2140.62" style="fill:none;stroke:rgb(0,84,147);stroke-width:15.19px;"/>
            </g>
            <g transform="matrix(1.19916,1.07306,-0.528582,0.5907,2074.14,-391.159)">
                <path d="M627.972,1906.11C628.373,1916.73 631.949,1920.31 635.719,1906.84C637.075,1902 641.6,1895.09 643.277,1900.83C646.369,1911.42 648.271,1925.79 648.271,1941.61C648.271,1974.13 640.231,2000.53 630.329,2000.53C620.427,2000.53 612.388,1974.13 612.388,1941.61C612.388,1924.33 614.657,1908.78 618.269,1898C621.456,1888.48 625.448,1891.97 627.972,1906.11Z" style="fill:rgb(0,84,147);"/>
            </g></g>
        </g>
    </g>
</svg>
