<?xml version="1.0" encoding="UTF-8" standalone="no"?>
<svg xmlns="http://www.w3.org/2000/svg" xmlns:xlink="http://www.w3.org/1999/xlink" viewBox="0 0 100 100" width="100%" height="100%">
  <rect x="0" y="0" width="100" height="100" rx="23" fill="rgb(192,57,43)"/>
  <svg x="4.50" y="4.50" width="91.00" height="91.00" viewBox="112.03 -31.12 580.93 580.93" xmlns="http://www.w3.org/2000/svg" style="overflow:visible"><style>.ouro{transform-box:fill-box;transform-origin:center;animation:ouroSpin 14s ease-in-out infinite}@keyframes ouroSpin{0%{transform:rotate(0)}16%{transform:rotate(360deg)}100%{transform:rotate(360deg)}}@media(prefers-reduced-motion:reduce){.ouro{animation:none}}</style>
    <g transform="matrix(1,0,0,1,-1529.42,-835.448)">
        <g transform="matrix(1,0,0,1,-41.0108,-515.563)">
            <g transform="matrix(10.4667,0,0,10.4667,-4607.76,-3519.63)">
                <g transform="matrix(50,0,0,50,617.071,502.822)">
                    <path d="M0.234,0.009C0.358,0.009 0.436,-0.051 0.436,-0.126C0.436,-0.326 0.131,-0.228 0.131,-0.372C0.131,-0.422 0.176,-0.459 0.234,-0.459C0.357,-0.459 0.332,-0.337 0.389,-0.337C0.409,-0.337 0.425,-0.352 0.425,-0.372C0.425,-0.426 0.354,-0.49 0.23,-0.49C0.12,-0.49 0.042,-0.43 0.042,-0.353C0.042,-0.156 0.348,-0.255 0.348,-0.108C0.348,-0.051 0.298,-0.02 0.234,-0.02C0.1,-0.02 0.132,-0.142 0.07,-0.142C0.047,-0.142 0.031,-0.129 0.031,-0.105C0.031,-0.058 0.101,0.009 0.234,0.009Z" style="fill:rgb(255,255,255);fill-rule:nonzero;"/>
                </g>
            </g>
            <g class="ouro"><g transform="matrix(1.32646,0.974925,-0.974925,1.32646,3160.82,-1889.98)">
                <path d="M541.582,2078.06C550.748,2058.14 564.154,2040.56 580.641,2026.49C606.837,2004.14 640.813,1990.63 677.917,1990.63C760.694,1990.63 827.898,2057.84 827.898,2140.62C827.898,2223.39 760.694,2290.6 677.917,2290.6C595.14,2290.6 527.935,2223.39 527.935,2140.62" style="fill:none;stroke:rgb(255,255,255);stroke-width:15.19px;"/>
            </g>
            <g transform="matrix(1.19916,1.07306,-0.528582,0.5907,2074.14,-391.159)">
                <path d="M627.972,1906.11C628.373,1916.73 631.949,1920.31 635.719,1906.84C637.075,1902 641.6,1895.09 643.277,1900.83C646.369,1911.42 648.271,1925.79 648.271,1941.61C648.271,1974.13 640.231,2000.53 630.329,2000.53C620.427,2000.53 612.388,1974.13 612.388,1941.61C612.388,1924.33 614.657,1908.78 618.269,1898C621.456,1888.48 625.448,1891.97 627.972,1906.11Z" style="fill:rgb(255,255,255);"/>
            </g></g>
        </g>
    </g>
  </svg>
</svg>
