<svg width="300" height="75" viewBox="0 0 300 75" fill="none" xmlns="http://www.w3.org/2000/svg">
<path d="M51.8194 44.5935C54.1307 58.8305 44.4806 72.2483 30.2655 74.563C16.0504 76.8778 2.65313 67.2129 0.341925 52.976C-1.96928 38.7391 7.68075 25.3213 21.8959 23.0065C36.111 20.6918 49.5082 30.3566 51.8194 44.5935Z" fill="url(#paint0_linear)"/>
<path d="M18.8578 23.7203C27.3521 25.3802 38.0783 26.3357 51.3786 42.7634C51.6569 42.5776 50.12 37.1448 52.1725 35.4561C54.7085 33.3697 60.0886 34.922 60.9597 33.0845C62.3274 28.4758 33.3436 19.3777 18.8578 23.7203Z" fill="url(#paint1_linear)"/>
<path d="M69.5353 30.1605C69.0906 13.9549 81.8472 0.45667 98.028 0.011299C114.209 -0.434072 127.686 12.3421 128.131 28.5477C128.576 44.7532 115.819 58.2515 99.6383 58.6968C83.4576 59.1422 69.98 46.3661 69.5353 30.1605Z" fill="url(#paint2_linear)"/>
<path d="M103.129 58.3576C93.9159 55.234 82.1106 52.5602 69.7528 32.2653C69.415 32.4305 70.3143 38.7127 67.7753 40.2858C64.6383 42.2293 58.8775 39.6929 57.6323 41.609C55.4194 46.5375 86.3438 61.0212 103.129 58.3576Z" fill="url(#paint3_linear)"/>
<path d="M225.659 22.9845C222.432 22.9845 218.989 24.0604 217.053 26.3198C216.945 24.168 215.654 22.9845 213.502 22.9845C211.028 22.9845 209.844 24.2756 209.844 26.7501V61.5009C209.844 64.1906 211.458 65.4817 213.825 65.4817C216.299 65.4817 217.806 64.083 217.806 61.5009V50.3118C219.635 52.5711 222.647 53.2167 225.874 53.2167C234.374 53.2167 238.247 46.0083 238.247 38.262C238.247 27.826 232.33 22.9845 225.659 22.9845ZM223.83 46.869C218.881 46.9766 217.375 42.0276 217.375 37.9392C217.375 33.4205 219.097 29.2246 223.83 29.2246C228.134 29.3322 230.178 33.2054 230.178 37.9392C230.285 41.7048 228.994 46.869 223.83 46.869ZM258.795 22.9845C255.568 22.9845 252.125 24.0604 250.189 26.3198C249.973 24.168 248.79 22.9845 246.531 22.9845C244.056 22.9845 242.873 24.2756 242.873 26.7501V61.5009C242.873 64.1906 244.487 65.4817 246.853 65.4817C249.328 65.4817 250.834 64.083 250.834 61.5009V50.3118C252.663 52.5711 255.675 53.2167 258.903 53.2167C267.402 53.2167 271.275 46.0083 271.275 38.262C271.383 27.826 265.466 22.9845 258.795 22.9845ZM256.966 46.869C252.017 46.9766 250.511 42.0276 250.511 37.9392C250.511 33.4205 252.233 29.2246 256.966 29.2246C261.27 29.3322 263.314 33.2054 263.314 37.9392C263.314 41.7048 262.13 46.869 256.966 46.869ZM203.497 44.7173V31.2688C203.497 25.4591 198.118 22.9845 190.479 22.9845C182.195 22.9845 177.677 27.0729 177.677 30.3005C177.677 31.9143 179.075 33.4205 181.119 33.4205C184.347 33.4205 184.454 29.0095 190.372 29.0095C193.061 29.0095 195.428 29.9777 195.428 32.3447C195.428 34.604 193.922 35.142 191.985 35.3571L187.036 35.8951C182.088 36.433 175.848 38.5848 175.848 45.1476C175.848 50.8497 181.227 53.1091 185.961 53.3243C190.909 53.5394 194.352 52.0332 196.719 50.2042C197.149 52.0332 198.44 53.3243 201.022 53.3243C202.851 53.3243 204.465 52.0332 204.465 50.2042C204.465 48.9132 203.497 48.0525 203.497 44.7173ZM195.428 39.6606C195.428 44.7173 192.738 47.9449 188.327 47.9449C185.53 47.9449 183.916 46.4387 183.916 44.6097C183.916 42.1351 185.745 41.1669 189.081 40.6289L191.985 40.1986C192.954 39.9834 194.567 39.7682 195.428 38.9075V39.6606ZM289.995 56.4443C288.058 61.9313 285.907 64.8361 280.85 64.8361H280.42C276.87 64.8361 275.363 63.1147 275.363 61.1782C275.363 59.0264 276.87 57.9505 279.021 57.9505H279.559C280.635 57.9505 281.818 57.8429 282.679 55.3684L283.002 54.5077L274.61 30.5157C273.965 28.5791 273.642 27.7184 273.642 26.7501C273.642 24.5984 275.363 22.877 277.515 22.877C279.667 22.877 281.173 24.0604 281.603 25.8894L286.767 44.7173H286.875L292.039 25.8894C292.577 24.0604 293.975 22.877 296.127 22.877C298.279 22.877 300 24.4908 300 26.7501C300 27.7184 299.677 28.5791 299.032 30.5157L289.995 56.4443ZM164.121 56.4443C162.184 61.9313 160.033 64.8361 154.976 64.8361H154.438C150.888 64.8361 149.382 63.1147 149.382 61.1782C149.382 59.0264 150.888 57.9505 153.04 57.9505H153.578C154.654 57.9505 155.837 57.8429 156.698 55.3684L157.02 54.5077L148.629 30.5157C147.983 28.6867 147.661 27.7184 147.661 26.8577C147.661 24.7059 149.382 22.9845 151.534 22.9845C153.685 22.9845 155.191 24.168 155.622 25.997L160.786 44.8248H160.893L166.057 25.997C166.595 24.168 167.994 22.9845 170.146 22.9845C172.297 22.9845 174.019 24.5984 174.019 26.8577C174.019 27.826 173.696 28.6867 173.05 30.6233L164.121 56.4443Z" fill="#004C97"/>
<defs>
<linearGradient id="paint0_linear" x1="10.4393" y1="28.0495" x2="18.5308" y2="77.7399" gradientUnits="userSpaceOnUse">
<stop stop-color="#2CCAFE"/>
<stop offset="1" stop-color="#0A91E7"/>
</linearGradient>
<linearGradient id="paint1_linear" x1="47.4054" y1="24.395" x2="37.9644" y2="42.1744" gradientUnits="userSpaceOnUse">
<stop stop-color="#2CCAFE"/>
<stop offset="1" stop-color="#0A91E7"/>
</linearGradient>
<linearGradient id="paint2_linear" x1="113.154" y1="54.7985" x2="111.597" y2="-1.76718" gradientUnits="userSpaceOnUse">
<stop stop-color="#FF8741"/>
<stop offset="1" stop-color="#FFA537"/>
</linearGradient>
<linearGradient id="paint3_linear" x1="78.427" y1="60.5058" x2="85.637" y2="47.427" gradientUnits="userSpaceOnUse">
<stop stop-color="#FF8043"/>
<stop offset="1" stop-color="#FFA636"/>
</linearGradient>
</defs>
</svg>
